<svg width="24" height="25" viewBox="0 0 24 25" fill="none" xmlns="http://www.w3.org/2000/svg">
<path fill-rule="evenodd" clip-rule="evenodd" d="M3.40625 10.1193L12 3.57145L20.5938 10.1193V21.9533C20.5694 21.9719 20.5184 22.0002 20.4375 22.0002H17V14.5C17 13.8528 16.5082 13.3209 15.8779 13.2568L15.75 13.25H8.25L8.12207 13.2568C7.49183 13.3209 7 13.8528 7 14.5V22.0002H3.5625C3.4816 22.0002 3.43062 21.9719 3.40625 21.9533V10.1193ZM20.4375 24.5002C21.762 24.5002 23.0938 23.5152 23.0938 22.0002V10.1193C23.0938 9.38805 22.7738 8.69608 22.2227 8.22281L22.1084 8.13102L12.7578 1.00602C12.3383 0.686401 11.7666 0.665848 11.3281 0.945469L11.2422 1.00602L1.8916 8.13102C1.27098 8.60387 0.90625 9.33907 0.90625 10.1193V22.0002C0.90625 23.5152 2.23797 24.5002 3.5625 24.5002H20.4375ZM14.5 15.75V22H9.5V15.75H14.5Z" fill="white" fill-opacity="0.5"/>
</svg>
