<svg width="24" height="24" viewBox="0 0 24 24" fill="none" xmlns="http://www.w3.org/2000/svg">
<path fill-rule="evenodd" clip-rule="evenodd" d="M20.75 5.4375V19.5C20.75 20.1904 21.3096 20.75 22 20.75C22.6904 20.75 23.25 20.1904 23.25 19.5V5.4375C23.25 4.05679 22.1307 2.9375 20.75 2.9375H13.1152L11.4727 1.41602C11.0105 0.987916 10.4034 0.75 9.77344 0.75H4.5C3.80964 0.75 3.25 1.30964 3.25 2C3.25 2.69036 3.80964 3.25 4.5 3.25H9.77344L11.7754 5.10449L12.1348 5.4375H20.75ZM15.75 20.75H3.25V8.25H7.50391L8.99609 9.71875L9.72559 10.4375H15.75V20.75ZM18.2432 22.1279L18.25 22V9.1875C18.25 8.49714 17.6904 7.9375 17 7.9375H10.75L8.89258 6.10938C8.68789 5.90788 8.42112 5.78363 8.1377 5.75586L8.01562 5.75H2L1.87207 5.75684C1.24183 5.82092 0.75 6.35285 0.75 7V22L0.756836 22.1279C0.816645 22.7161 1.2839 23.1834 1.87207 23.2432L2 23.25H17L17.1279 23.2432C17.7161 23.1834 18.1834 22.7161 18.2432 22.1279Z" fill="white" fill-opacity="0.5"/>
</svg>
