<svg width="24" height="24" viewBox="0 0 24 24" fill="none" xmlns="http://www.w3.org/2000/svg">
<path fill-rule="evenodd" clip-rule="evenodd" d="M13.2499 3.25C17.392 3.25 20.7499 6.60786 20.7499 10.75C20.7499 14.8921 17.392 18.25 13.2499 18.25C9.10777 18.25 5.74991 14.8921 5.74991 10.75C5.74991 6.60786 9.10777 3.25 13.2499 3.25ZM7.11774 18.6497C8.81112 19.9661 10.939 20.75 13.2499 20.75C18.7728 20.75 23.2499 16.2728 23.2499 10.75C23.2499 5.22715 18.7728 0.75 13.2499 0.75C7.72706 0.75 3.24991 5.22715 3.24991 10.75C3.24991 13.0609 4.03379 15.1888 5.35017 16.8822L1.11612 21.1162C0.627961 21.6044 0.627961 22.3956 1.11612 22.8838C1.60427 23.3719 2.39554 23.3719 2.88369 22.8838L7.11774 18.6497Z" fill="white" fill-opacity="0.5"/>
</svg>
