<svg width="17" height="17" viewBox="0 0 17 17" fill="none" xmlns="http://www.w3.org/2000/svg">
<path fill-rule="evenodd" clip-rule="evenodd" d="M4.20666 9.81979L4.20666 16.0788C4.20666 16.3886 3.96812 16.6403 3.64014 16.6403L1.3144 16.6403C1.01623 16.6403 0.777693 16.3886 0.777693 16.0788L0.777694 0.969273C0.777694 0.659484 1.01623 0.408112 1.3144 0.408112L3.64014 0.408112C3.96813 0.408112 4.20666 0.659485 4.20666 0.969273L4.20666 7.22828L15.5372 0.620354C15.8055 0.464706 16.1335 0.464706 16.4019 0.620354C16.6702 0.776 16.8491 1.0635 16.8491 1.37479C16.8491 4.65271 16.8491 12.3953 16.8491 15.6736C16.8491 15.9845 16.6702 16.272 16.4019 16.4277C16.1335 16.5833 15.8055 16.5834 15.5372 16.428L4.20666 9.81979Z" fill="white" fill-opacity="0.5"/>
</svg>
