<svg width="17" height="17" viewBox="0 0 17 17" fill="none" xmlns="http://www.w3.org/2000/svg">
<path fill-rule="evenodd" clip-rule="evenodd" d="M9.94894 12.646L10.8304 11.7129C11.1415 11.3846 11.1415 10.8548 10.8304 10.5265C10.5221 10.1982 10.0172 10.1982 9.70614 10.5265L6.95836 13.4263L9.70614 16.3262C10.0172 16.6516 10.5221 16.6516 10.8304 16.3262C11.1415 15.9979 11.1415 15.4652 10.8304 15.1369L9.94894 14.2068H13.1796C15.2724 14.2068 16.9723 12.4098 16.9723 10.2011V4.34091C16.9723 2.13218 15.2724 0.338135 13.1796 0.338135H4.6964C2.60084 0.338135 0.900879 2.13218 0.900879 4.34091V10.2011C0.900879 12.4098 2.60084 14.2068 4.6964 14.2068H5.44953V12.646H4.6964C3.41669 12.646 2.37986 11.5488 2.37986 10.2011V4.34091C2.37986 2.99321 3.41669 1.89609 4.6964 1.89609H13.1796C14.4565 1.89609 15.4963 2.99321 15.4963 4.34091V10.2011C15.4963 11.5488 14.4565 12.646 13.1796 12.646H9.94894Z" fill="white" fill-opacity="0.5"/>
</svg>
