<svg width="17" height="17" viewBox="0 0 17 17" fill="none" xmlns="http://www.w3.org/2000/svg">
<path fill-rule="evenodd" clip-rule="evenodd" d="M13.1218 13.9292C13.1508 13.9292 13.1772 13.9475 13.1877 13.9809C13.2009 14.0113 13.1932 14.0477 13.1721 14.072C12.953 14.3241 12.5148 14.8282 12.5148 14.8282C12.214 15.1744 12.214 15.7361 12.5148 16.0823C12.8157 16.4285 13.3013 16.4285 13.6022 16.0823C13.6022 16.0823 15.5998 13.7866 16.1302 13.1731C16.1645 13.1337 16.183 13.079 16.183 13.0243C16.183 12.9697 16.1645 12.915 16.1302 12.8755C15.5998 12.2621 13.6022 9.96629 13.6022 9.96629C13.3013 9.62011 12.8157 9.62011 12.5148 9.96629C12.214 10.3125 12.214 10.8743 12.5148 11.2205C12.5148 11.2205 12.9767 11.7519 13.2036 12.0131C13.2247 12.0374 13.2327 12.0738 13.2195 12.1042C13.2089 12.1376 13.1826 12.1558 13.1535 12.1558C12.7524 12.1558 11.813 12.1527 11.813 12.1527C11.4594 12.1527 11.1056 11.9554 10.7335 11.6669C10.2611 11.2964 9.7835 10.7741 9.29792 10.1668C9.29792 10.1668 9.01296 9.81144 8.86517 9.6262C8.84142 9.59584 8.80975 9.57763 8.77281 9.57763C8.7385 9.57459 8.70419 9.58974 8.68044 9.61707C8.46669 9.84482 7.95468 10.3854 7.74092 10.6131C7.71453 10.6405 7.69866 10.6769 7.69866 10.7164C7.69602 10.7559 7.70934 10.7953 7.73309 10.8257C7.88087 11.011 8.16584 11.3663 8.16584 11.3663C9.40353 12.912 10.665 13.9232 11.8103 13.9232C11.8103 13.9232 12.7286 13.9262 13.1218 13.9292ZM13.1721 2.38055C13.1932 2.40484 13.2009 2.43825 13.1877 2.47165C13.1772 2.50202 13.1508 2.52325 13.1218 2.52325C12.7286 2.52325 11.8103 2.52628 11.8103 2.52628C11.0054 2.52628 10.1478 2.99701 9.29277 3.823C8.2187 4.86157 7.10489 6.48015 5.99651 8.10481C4.95675 9.62318 3.92507 11.1506 2.91962 12.1224C2.38918 12.6356 1.89025 13.0061 1.39148 13.0061C1.39148 13.0061 0.568117 13.0061 0.243522 13.0061C0.16963 13.0061 0.111572 13.0729 0.111572 13.1549C0.111572 13.492 0.111572 14.2906 0.111572 14.6247C0.111572 14.6672 0.124932 14.7036 0.148683 14.734C0.175073 14.7613 0.206576 14.7765 0.243522 14.7765C0.462557 14.7765 0.882239 14.7765 0.882239 14.7765H1.39148C2.19901 14.7765 3.05421 14.3089 3.90924 13.4798C4.98331 12.4413 6.09696 10.8227 7.20797 9.19803C8.24509 7.67966 9.27941 6.15216 10.2849 5.1804C10.8153 4.66719 11.3116 4.29672 11.8103 4.29672H11.813C11.813 4.29672 12.7524 4.2937 13.1535 4.2937C13.1826 4.2937 13.2089 4.31493 13.2195 4.3453C13.2327 4.37567 13.2247 4.41211 13.2036 4.4364C12.9767 4.7006 12.5148 5.23206 12.5148 5.23206C12.214 5.57825 12.214 6.13699 12.5148 6.48318C12.8157 6.82936 13.3013 6.82936 13.6022 6.48318C13.6022 6.48318 15.5998 4.18738 16.1302 3.57395C16.1645 3.53448 16.183 3.4829 16.183 3.4252C16.183 3.37054 16.1645 3.31587 16.1302 3.27639C15.5998 2.666 13.6022 0.367166 13.6022 0.367166C13.3013 0.0240143 12.8157 0.0240143 12.5148 0.367166C12.214 0.713355 12.214 1.27518 12.5148 1.62136C12.5148 1.62136 12.953 2.12546 13.1721 2.38055ZM0.882239 3.44643H1.39148C1.83483 3.44643 2.2783 3.74401 2.7454 4.16612C3.33654 4.69755 3.93563 5.43856 4.5426 6.26455C4.5426 6.26455 4.81161 6.632 4.95411 6.82635C4.97522 6.85672 5.0097 6.87492 5.044 6.87795C5.07831 6.88403 5.11245 6.86885 5.13884 6.84456C5.36052 6.62895 5.89095 6.11267 6.11527 5.89706C6.14166 5.86973 6.15757 5.83334 6.16021 5.79386C6.16285 5.75438 6.15225 5.71486 6.13114 5.68449C5.98864 5.49014 5.71694 5.12269 5.71694 5.12269C4.89094 3.99606 4.0675 3.02128 3.27052 2.41697C2.63453 1.93412 2.00109 1.67296 1.39148 1.67296H0.111572V3.44643H0.882239Z" fill="white" fill-opacity="0.5"/>
</svg>
